{
  "accessors": [
    {
      "bufferView": 2,
      "componentType": 5126,
      "count": 970,
      "max": [
        -2.5822386741638184,
        1.8210575580596924,
        0.0
      ],
      "min": [
        -6.805238246917725,
        1.1210576295852661,
        0.0
      ],
      "type": "VEC3"
    },
    {
      "bufferView": 2,
      "byteOffset": 11640,
      "componentType": 5126,
      "count": 970,
      "type": "VEC3"
    },
    {
      "bufferView": 1,
      "componentType": 5126,
      "count": 970,
      "type": "VEC2"
    },
    {
      "bufferView": 0,
      "componentType": 5125,
      "count": 2880,
      "type": "SCALAR"
    },
    {
      "bufferView": 2,
      "byteOffset": 23280,
      "componentType": 5126,
      "count": 925,
      "max": [
        7.865531921386719,
        1.8210575580596924,
        0.0
      ],
      "min": [
        2.3805317878723145,
        1.1210576295852661,
        0.0
      ],
      "type": "VEC3"
    },
    {
      "bufferView": 2,
      "byteOffset": 34380,
      "componentType": 5126,
      "count": 925,
      "type": "VEC3"
    },
    {
      "bufferView": 1,
      "byteOffset": 7760,
      "componentType": 5126,
      "count": 925,
      "type": "VEC2"
    },
    {
      "bufferView": 0,
      "byteOffset": 11520,
      "componentType": 5125,
      "count": 2727,
      "type": "SCALAR"
    },
    {
      "bufferView": 2,
      "byteOffset": 45480,
      "componentType": 5126,
      "count": 4,
      "max": [
        -0.14813745021820068,
        1.0,
        0.0
      ],
      "min": [
        -2.1481375694274902,
        -1.0,
        0.0
      ],
      "type": "VEC3"
    },
    {
      "bufferView": 2,
      "byteOffset": 45528,
      "componentType": 5126,
      "count": 4,
      "type": "VEC3"
    },
    {
      "bufferView": 1,
      "byteOffset": 15160,
      "componentType": 5126,
      "count": 4,
      "type": "VEC2"
    },
    {
      "bufferView": 0,
      "byteOffset": 22428,
      "componentType": 5125,
      "count": 6,
      "type": "SCALAR"
    },
    {
      "bufferView": 2,
      "byteOffset": 45576,
      "componentType": 5126,
      "count": 4,
      "max": [
        2.1962666511535645,
        1.9785594940185547,
        0.0
      ],
      "min": [
        0.1962665319442749,
        -0.021440446376800537,
        0.0
      ],
      "type": "VEC3"
    },
    {
      "bufferView": 2,
      "byteOffset": 45624,
      "componentType": 5126,
      "count": 4,
      "type": "VEC3"
    },
    {
      "bufferView": 1,
      "byteOffset": 15192,
      "componentType": 5126,
      "count": 4,
      "type": "VEC2"
    },
    {
      "bufferView": 0,
      "byteOffset": 22452,
      "componentType": 5125,
      "count": 6,
      "type": "SCALAR"
    },
    {
      "bufferView": 2,
      "byteOffset": 45672,
      "componentType": 5126,
      "count": 65532,
      "max": [
        482.5535583496094,
        482.1690368652344,
        51.079010009765625
      ],
      "min": [
        -483.3741455078125,
        -483.9083557128906,
        -22.466327667236328
      ],
      "type": "VEC3"
    },
    {
      "bufferView": 2,
      "byteOffset": 832056,
      "componentType": 5126,
      "count": 65532,
      "type": "VEC3"
    },
    {
      "bufferView": 1,
      "byteOffset": 15224,
      "componentType": 5126,
      "count": 65532,
      "type": "VEC2"
    },
    {
      "bufferView": 0,
      "byteOffset": 22476,
      "componentType": 5125,
      "count": 98298,
      "type": "SCALAR"
    },
    {
      "bufferView": 2,
      "byteOffset": 1618440,
      "componentType": 5126,
      "count": 65532,
      "max": [
        482.1564636230469,
        481.80230712890625,
        51.01758575439453
      ],
      "min": [
        -481.2408142089844,
        -483.9228515625,
        -22.43243980407715
      ],
      "type": "VEC3"
    },
    {
      "bufferView": 2,
      "byteOffset": 2404824,
      "componentType": 5126,
      "count": 65532,
      "type": "VEC3"
    },
    {
      "bufferView": 1,
      "byteOffset": 539480,
      "componentType": 5126,
      "count": 65532,
      "type": "VEC2"
    },
    {
      "bufferView": 0,
      "byteOffset": 415668,
      "componentType": 5125,
      "count": 98298,
      "type": "SCALAR"
    },
    {
      "bufferView": 2,
      "byteOffset": 3191208,
      "componentType": 5126,
      "count": 65532,
      "max": [
        483.0382080078125,
        484.7152404785156,
        50.932559967041016
      ],
      "min": [
        -482.8063659667969,
        -481.23553466796875,
        -22.49008560180664
      ],
      "type": "VEC3"
    },
    {
      "bufferView": 2,
      "byteOffset": 3977592,
      "componentType": 5126,
      "count": 65532,
      "type": "VEC3"
    },
    {
      "bufferView": 1,
      "byteOffset": 1063736,
      "componentType": 5126,
      "count": 65532,
      "type": "VEC2"
    },
    {
      "bufferView": 0,
      "byteOffset": 808860,
      "componentType": 5125,
      "count": 98298,
      "type": "SCALAR"
    },
    {
      "bufferView": 2,
      "byteOffset": 4763976,
      "componentType": 5126,
      "count": 3404,
      "max": [
        477.8067626953125,
        469.88446044921875,
        50.70643615722656
      ],
      "min": [
        -479.8883972167969,
        -470.3511962890625,
        -21.801565170288086
      ],
      "type": "VEC3"
    },
    {
      "bufferView": 2,
      "byteOffset": 4804824,
      "componentType": 5126,
      "count": 3404,
      "type": "VEC3"
    },
    {
      "bufferView": 1,
      "byteOffset": 1587992,
      "componentType": 5126,
      "count": 3404,
      "type": "VEC2"
    },
    {
      "bufferView": 0,
      "byteOffset": 1202052,
      "componentType": 5125,
      "count": 5106,
      "type": "SCALAR"
    },
    {
      "bufferView": 2,
      "byteOffset": 4845672,
      "componentType": 5126,
      "count": 65532,
      "max": [
        482.5535583496094,
        482.1690368652344,
        51.079010009765625
      ],
      "min": [
        -483.3741455078125,
        -483.9083557128906,
        -22.466327667236328
      ],
      "type": "VEC3"
    },
    {
      "bufferView": 2,
      "byteOffset": 5632056,
      "componentType": 5126,
      "count": 65532,
      "type": "VEC3"
    },
    {
      "bufferView": 1,
      "byteOffset": 1615224,
      "componentType": 5126,
      "count": 65532,
      "type": "VEC2"
    },
    {
      "bufferView": 0,
      "byteOffset": 1222476,
      "componentType": 5125,
      "count": 98298,
      "type": "SCALAR"
    },
    {
      "bufferView": 2,
      "byteOffset": 6418440,
      "componentType": 5126,
      "count": 65532,
      "max": [
        482.1564636230469,
        481.80230712890625,
        51.01758575439453
      ],
      "min": [
        -481.2408142089844,
        -483.9228515625,
        -22.43243980407715
      ],
      "type": "VEC3"
    },
    {
      "bufferView": 2,
      "byteOffset": 7204824,
      "componentType": 5126,
      "count": 65532,
      "type": "VEC3"
    },
    {
      "bufferView": 1,
      "byteOffset": 2139480,
      "componentType": 5126,
      "count": 65532,
      "type": "VEC2"
    },
    {
      "bufferView": 0,
      "byteOffset": 1615668,
      "componentType": 5125,
      "count": 98298,
      "type": "SCALAR"
    },
    {
      "bufferView": 2,
      "byteOffset": 7991208,
      "componentType": 5126,
      "count": 65532,
      "max": [
        483.0382080078125,
        484.7152404785156,
        50.932559967041016
      ],
      "min": [
        -482.8063659667969,
        -481.23553466796875,
        -22.49008560180664
      ],
      "type": "VEC3"
    },
    {
      "bufferView": 2,
      "byteOffset": 8777592,
      "componentType": 5126,
      "count": 65532,
      "type": "VEC3"
    },
    {
      "bufferView": 1,
      "byteOffset": 2663736,
      "componentType": 5126,
      "count": 65532,
      "type": "VEC2"
    },
    {
      "bufferView": 0,
      "byteOffset": 2008860,
      "componentType": 5125,
      "count": 98298,
      "type": "SCALAR"
    },
    {
      "bufferView": 2,
      "byteOffset": 9563976,
      "componentType": 5126,
      "count": 3404,
      "max": [
        477.8067626953125,
        469.88446044921875,
        50.70643615722656
      ],
      "min": [
        -479.8883972167969,
        -470.3511962890625,
        -21.801565170288086
      ],
      "type": "VEC3"
    },
    {
      "bufferView": 2,
      "byteOffset": 9604824,
      "componentType": 5126,
      "count": 3404,
      "type": "VEC3"
    },
    {
      "bufferView": 1,
      "byteOffset": 3187992,
      "componentType": 5126,
      "count": 3404,
      "type": "VEC2"
    },
    {
      "bufferView": 0,
      "byteOffset": 2402052,
      "componentType": 5125,
      "count": 5106,
      "type": "SCALAR"
    }
  ],
  "asset": {
    "generator": "fab-model-conversion",
    "version": "2.0"
  },
  "bufferViews": [
    {
      "buffer": 0,
      "byteLength": 2422476,
      "target": 34963
    },
    {
      "buffer": 0,
      "byteLength": 3215224,
      "byteOffset": 2422476,
      "byteStride": 8,
      "target": 34962
    },
    {
      "buffer": 0,
      "byteLength": 9645672,
      "byteOffset": 5637700,
      "byteStride": 12,
      "target": 34962
    }
  ],
  "buffers": [
    {
      "byteLength": 15283372,
      "uri": "scene.bin"
    }
  ],
  "images": [
    {
      "uri": "textures/grass_baseColor.png"
    },
    {
      "uri": "textures/Anime_Grass_baseColor.png"
    }
  ],
  "materials": [
    {
      "doubleSided": true,
      "name": "Material",
      "pbrMetallicRoughness": {
        "baseColorFactor": [
          0.15160736629759586,
          0.19637959888573484,
          0.03916059870156128,
          1.0
        ],
        "metallicFactor": 0.0,
        "roughnessFactor": 0.0
      }
    },
    {
      "doubleSided": true,
      "name": "Material.001",
      "pbrMetallicRoughness": {
        "baseColorFactor": [
          0.05537249478144971,
          0.10610556475977052,
          0.009571795109049232,
          1.0
        ],
        "metallicFactor": 0.0,
        "roughnessFactor": 0.0
      }
    },
    {
      "doubleSided": true,
      "name": "grass",
      "pbrMetallicRoughness": {
        "baseColorTexture": {
          "index": 0
        },
        "metallicFactor": 0.0,
        "roughnessFactor": 0.7550510257216823
      }
    },
    {
      "doubleSided": true,
      "name": "Anime_Grass",
      "pbrMetallicRoughness": {
        "baseColorTexture": {
          "index": 1
        },
        "metallicFactor": 0.0,
        "roughnessFactor": 0.683772233983162
      }
    },
    {
      "doubleSided": true,
      "name": "grass.001",
      "pbrMetallicRoughness": {
        "baseColorTexture": {
          "index": 0
        },
        "metallicFactor": 0.0,
        "roughnessFactor": 0.7550510257216823
      }
    },
    {
      "doubleSided": true,
      "name": "grass.002",
      "pbrMetallicRoughness": {
        "baseColorTexture": {
          "index": 1
        },
        "metallicFactor": 0.0
      }
    }
  ],
  "meshes": [
    {
      "name": "Text_Material_0",
      "primitives": [
        {
          "attributes": {
            "NORMAL": 1,
            "POSITION": 0,
            "TEXCOORD_0": 2
          },
          "indices": 3,
          "material": 0,
          "mode": 4
        }
      ]
    },
    {
      "name": "Text.001_Material.001_0",
      "primitives": [
        {
          "attributes": {
            "NORMAL": 5,
            "POSITION": 4,
            "TEXCOORD_0": 6
          },
          "indices": 7,
          "material": 1,
          "mode": 4
        }
      ]
    },
    {
      "name": "0",
      "primitives": [
        {
          "attributes": {
            "NORMAL": 9,
            "POSITION": 8,
            "TEXCOORD_0": 10
          },
          "indices": 11,
          "material": 2,
          "mode": 4
        }
      ]
    },
    {
      "name": "1",
      "primitives": [
        {
          "attributes": {
            "NORMAL": 13,
            "POSITION": 12,
            "TEXCOORD_0": 14
          },
          "indices": 15,
          "material": 3,
          "mode": 4
        }
      ]
    },
    {
      "name": "2",
      "primitives": [
        {
          "attributes": {
            "NORMAL": 17,
            "POSITION": 16,
            "TEXCOORD_0": 18
          },
          "indices": 19,
          "material": 4,
          "mode": 4
        }
      ]
    },
    {
      "name": "2",
      "primitives": [
        {
          "attributes": {
            "NORMAL": 21,
            "POSITION": 20,
            "TEXCOORD_0": 22
          },
          "indices": 23,
          "material": 4,
          "mode": 4
        }
      ]
    },
    {
      "name": "2",
      "primitives": [
        {
          "attributes": {
            "NORMAL": 25,
            "POSITION": 24,
            "TEXCOORD_0": 26
          },
          "indices": 27,
          "material": 4,
          "mode": 4
        }
      ]
    },
    {
      "name": "2",
      "primitives": [
        {
          "attributes": {
            "NORMAL": 29,
            "POSITION": 28,
            "TEXCOORD_0": 30
          },
          "indices": 31,
          "material": 4,
          "mode": 4
        }
      ]
    },
    {
      "name": "3",
      "primitives": [
        {
          "attributes": {
            "NORMAL": 33,
            "POSITION": 32,
            "TEXCOORD_0": 34
          },
          "indices": 35,
          "material": 5,
          "mode": 4
        }
      ]
    },
    {
      "name": "3",
      "primitives": [
        {
          "attributes": {
            "NORMAL": 37,
            "POSITION": 36,
            "TEXCOORD_0": 38
          },
          "indices": 39,
          "material": 5,
          "mode": 4
        }
      ]
    },
    {
      "name": "3",
      "primitives": [
        {
          "attributes": {
            "NORMAL": 41,
            "POSITION": 40,
            "TEXCOORD_0": 42
          },
          "indices": 43,
          "material": 5,
          "mode": 4
        }
      ]
    },
    {
      "name": "3",
      "primitives": [
        {
          "attributes": {
            "NORMAL": 45,
            "POSITION": 44,
            "TEXCOORD_0": 46
          },
          "indices": 47,
          "material": 5,
          "mode": 4
        }
      ]
    }
  ],
  "nodes": [
    {
      "children": [
        1
      ],
      "matrix": [
        1.0,
        0.0,
        0.0,
        0.0,
        0.0,
        2.220446049250313e-16,
        -1.0,
        0.0,
        0.0,
        1.0,
        2.220446049250313e-16,
        0.0,
        0.0,
        0.0,
        0.0,
        1.0
      ],
      "name": "Sketchfab_model"
    },
    {
      "children": [
        2
      ],
      "matrix": [
        1.0,
        0.0,
        0.0,
        0.0,
        0.0,
        0.0,
        1.0,
        0.0,
        0.0,
        -1.0,
        0.0,
        0.0,
        0.0,
        0.0,
        0.0,
        1.0
      ],
      "name": "da7af6afcd824b9faf0c24648805cdf2.fbx"
    },
    {
      "children": [
        3,
        5,
        7,
        9,
        11,
        16
      ],
      "name": "RootNode"
    },
    {
      "children": [
        4
      ],
      "matrix": [
        100.0,
        0.0,
        0.0,
        0.0,
        0.0,
        99.9999999999999,
        4.371138828673792e-06,
        0.0,
        0.0,
        -4.371138828673792e-06,
        99.9999999999999,
        0.0,
        0.0,
        2.384185791015625e-05,
        -419.6034851074219,
        1.0
      ],
      "name": "Text"
    },
    {
      "mesh": 0,
      "name": "Text_Material_0"
    },
    {
      "children": [
        6
      ],
      "matrix": [
        100.0,
        0.0,
        0.0,
        0.0,
        0.0,
        99.9999999999999,
        4.371138828673792e-06,
        0.0,
        0.0,
        -4.371138828673792e-06,
        99.9999999999999,
        0.0,
        0.0,
        2.384185791015625e-05,
        -419.6034851074219,
        1.0
      ],
      "name": "Text.001"
    },
    {
      "mesh": 1,
      "name": "Text.001_Material.001_0"
    },
    {
      "children": [
        8
      ],
      "matrix": [
        428.3921813964844,
        0.0,
        0.0,
        0.0,
        -0.0,
        -6.979394523926391e-05,
        -428.3921813964787,
        0.0,
        0.0,
        428.3921813964787,
        -6.979394523926391e-05,
        0.0,
        -5.983638763427734,
        0.0,
        -5.198884010314941,
        1.0
      ],
      "name": "Real Grass.001"
    },
    {
      "mesh": 2,
      "name": "0"
    },
    {
      "children": [
        10
      ],
      "matrix": [
        428.3921813964844,
        0.0,
        0.0,
        0.0,
        0.0,
        -6.979394523926391e-05,
        -428.3921813964787,
        0.0,
        0.0,
        428.3921813964787,
        -6.979394523926391e-05,
        0.0,
        46.21845626831055,
        0.0,
        414.0083312988281,
        1.0
      ],
      "name": "Anime Grass.001"
    },
    {
      "mesh": 3,
      "name": "1"
    },
    {
      "children": [
        12,
        13,
        14,
        15
      ],
      "matrix": [
        0.9173774123191833,
        0.0,
        0.0,
        0.0,
        -0.0,
        -1.494597512737616e-07,
        -0.9173774123191712,
        0.0,
        0.0,
        0.9173774123191712,
        -1.494597512737616e-07,
        0.0,
        -497.6827087402344,
        15.335599899291992,
        -4.835402965545654,
        1.0
      ],
      "name": "Mesh"
    },
    {
      "mesh": 4,
      "name": "2"
    },
    {
      "mesh": 5,
      "name": "2"
    },
    {
      "mesh": 6,
      "name": "2"
    },
    {
      "mesh": 7,
      "name": "2"
    },
    {
      "children": [
        17,
        18,
        19,
        20
      ],
      "matrix": [
        0.9173774123191833,
        0.0,
        0.0,
        0.0,
        0.0,
        -1.494597512737616e-07,
        -0.9173774123191712,
        0.0,
        0.0,
        0.9173774123191712,
        -1.494597512737616e-07,
        0.0,
        558.84375,
        15.335599899291992,
        -4.835402965545654,
        1.0
      ],
      "name": "Mesh.001"
    },
    {
      "mesh": 8,
      "name": "3"
    },
    {
      "mesh": 9,
      "name": "3"
    },
    {
      "mesh": 10,
      "name": "3"
    },
    {
      "mesh": 11,
      "name": "3"
    }
  ],
  "samplers": [
    {
      "magFilter": 9729,
      "minFilter": 9987,
      "wrapS": 10497,
      "wrapT": 10497
    }
  ],
  "scene": 0,
  "scenes": [
    {
      "name": "Sketchfab_Scene",
      "nodes": [
        0
      ]
    }
  ],
  "textures": [
    {
      "sampler": 0,
      "source": 0
    },
    {
      "sampler": 0,
      "source": 1
    }
  ]
}
