{
	"asset":{
		"generator":"Khronos glTF Blender I/O v4.3.47",
		"version":"2.0"
	},
	"extensionsUsed":[
		"KHR_materials_clearcoat"
	],
	"scene":0,
	"scenes":[
		{
			"name":"Scene",
			"nodes":[
				21
			]
		}
	],
	"nodes":[
		{
			"name":"face_5"
		},
		{
			"name":"Bottom_0",
			"rotation":[
				-8.881784197001252e-16,
				1.7763568394002505e-15,
				5.293955920339377e-23,
				1
			]
		},
		{
			"name":"Top_1",
			"rotation":[
				-0.17021682858467102,
				-4.281325914314493e-15,
				-1.434820529055969e-08,
				0.9854066967964172
			],
			"translation":[
				-4.239285022164302e-16,
				0.5226989984512329,
				0
			]
		},
		{
			"children":[
				2
			],
			"name":"Middle_2",
			"rotation":[
				-0.14735440909862518,
				2.4759319927625256e-08,
				-8.732388145915593e-09,
				0.9890837669372559
			],
			"translation":[
				-5.293955920339377e-23,
				0.4999999403953552,
				0
			]
		},
		{
			"name":"Bubble1_3",
			"rotation":[
				0.3348909020423889,
				-0.041705936193466187,
				0.12170398980379105,
				0.9334328770637512
			],
			"scale":[
				0.9999999403953552,
				1,
				0.9999999403953552
			],
			"translation":[
				0.004862877540290356,
				1.9058529138565063,
				-0.9968344569206238
			]
		},
		{
			"name":"Bubble2_4",
			"rotation":[
				0.08305186778306961,
				0.03998787701129913,
				-0.15818671882152557,
				0.9830973148345947
			],
			"scale":[
				0.9999999403953552,
				1,
				1
			],
			"translation":[
				-0.0010523675009608269,
				2.0381579399108887,
				-1.1231825351715088
			]
		},
		{
			"children":[
				1,
				3,
				4,
				5
			],
			"name":"GLTF_created_0_rootJoint",
			"rotation":[
				-8.557136332854043e-09,
				1.7114272665708086e-08,
				-2.928983286277023e-16,
				1
			]
		},
		{
			"mesh":0,
			"name":"mesh_1",
			"skin":0
		},
		{
			"mesh":1,
			"name":"mesh_1.001",
			"skin":0
		},
		{
			"mesh":2,
			"name":"mesh_1.002",
			"skin":0
		},
		{
			"name":"Object_10"
		},
		{
			"name":"Object_11"
		},
		{
			"mesh":3,
			"name":"Object_7",
			"skin":0
		},
		{
			"name":"Object_9"
		},
		{
			"name":"poring_6"
		},
		{
			"children":[
				0,
				7,
				8,
				9,
				10,
				11,
				12,
				13,
				14,
				6
			],
			"name":"GLTF_created_0"
		},
		{
			"children":[
				15
			],
			"name":"Armature_7"
		},
		{
			"name":"grassblade.011_9"
		},
		{
			"name":"platform_8"
		},
		{
			"children":[
				16,
				17,
				18
			],
			"name":"GLTF_SceneRootNode",
			"rotation":[
				0.70710688829422,
				0,
				0,
				0.7071066498756409
			]
		},
		{
			"children":[
				19
			],
			"name":"root"
		},
		{
			"children":[
				20
			],
			"name":"Sketchfab_model",
			"rotation":[
				-0.70710688829422,
				0,
				0,
				0.7071066498756409
			]
		}
	],
	"animations":[
		{
			"channels":[
				{
					"sampler":0,
					"target":{
						"node":6,
						"path":"translation"
					}
				},
				{
					"sampler":1,
					"target":{
						"node":6,
						"path":"rotation"
					}
				},
				{
					"sampler":2,
					"target":{
						"node":6,
						"path":"scale"
					}
				},
				{
					"sampler":3,
					"target":{
						"node":1,
						"path":"translation"
					}
				},
				{
					"sampler":4,
					"target":{
						"node":1,
						"path":"rotation"
					}
				},
				{
					"sampler":5,
					"target":{
						"node":1,
						"path":"scale"
					}
				},
				{
					"sampler":6,
					"target":{
						"node":3,
						"path":"translation"
					}
				},
				{
					"sampler":7,
					"target":{
						"node":3,
						"path":"rotation"
					}
				},
				{
					"sampler":8,
					"target":{
						"node":3,
						"path":"scale"
					}
				},
				{
					"sampler":9,
					"target":{
						"node":2,
						"path":"translation"
					}
				},
				{
					"sampler":10,
					"target":{
						"node":2,
						"path":"rotation"
					}
				},
				{
					"sampler":11,
					"target":{
						"node":2,
						"path":"scale"
					}
				},
				{
					"sampler":12,
					"target":{
						"node":4,
						"path":"translation"
					}
				},
				{
					"sampler":13,
					"target":{
						"node":4,
						"path":"rotation"
					}
				},
				{
					"sampler":14,
					"target":{
						"node":4,
						"path":"scale"
					}
				},
				{
					"sampler":15,
					"target":{
						"node":5,
						"path":"translation"
					}
				},
				{
					"sampler":16,
					"target":{
						"node":5,
						"path":"rotation"
					}
				},
				{
					"sampler":17,
					"target":{
						"node":5,
						"path":"scale"
					}
				},
				{
					"sampler":18,
					"target":{
						"node":7,
						"path":"weights"
					}
				},
				{
					"sampler":19,
					"target":{
						"node":8,
						"path":"weights"
					}
				},
				{
					"sampler":20,
					"target":{
						"node":9,
						"path":"weights"
					}
				}
			],
			"name":"Animation",
			"samplers":[
				{
					"input":37,
					"interpolation":"STEP",
					"output":38
				},
				{
					"input":37,
					"interpolation":"STEP",
					"output":39
				},
				{
					"input":37,
					"interpolation":"STEP",
					"output":40
				},
				{
					"input":37,
					"interpolation":"STEP",
					"output":41
				},
				{
					"input":37,
					"interpolation":"STEP",
					"output":42
				},
				{
					"input":43,
					"interpolation":"LINEAR",
					"output":44
				},
				{
					"input":43,
					"interpolation":"LINEAR",
					"output":45
				},
				{
					"input":37,
					"interpolation":"STEP",
					"output":46
				},
				{
					"input":37,
					"interpolation":"STEP",
					"output":47
				},
				{
					"input":37,
					"interpolation":"STEP",
					"output":48
				},
				{
					"input":37,
					"interpolation":"STEP",
					"output":49
				},
				{
					"input":43,
					"interpolation":"LINEAR",
					"output":50
				},
				{
					"input":43,
					"interpolation":"LINEAR",
					"output":51
				},
				{
					"input":43,
					"interpolation":"LINEAR",
					"output":52
				},
				{
					"input":43,
					"interpolation":"LINEAR",
					"output":53
				},
				{
					"input":43,
					"interpolation":"LINEAR",
					"output":54
				},
				{
					"input":43,
					"interpolation":"LINEAR",
					"output":55
				},
				{
					"input":43,
					"interpolation":"LINEAR",
					"output":56
				},
				{
					"input":43,
					"interpolation":"LINEAR",
					"output":57
				},
				{
					"input":43,
					"interpolation":"LINEAR",
					"output":58
				},
				{
					"input":43,
					"interpolation":"LINEAR",
					"output":59
				}
			]
		}
	],
	"materials":[
		{
			"extensions":{
				"KHR_materials_clearcoat":{
					"clearcoatFactor":1,
					"clearcoatRoughnessFactor":1
				}
			},
			"name":"poring",
			"pbrMetallicRoughness":{
				"baseColorFactor":[
					1,
					0.12477181851863861,
					0.12477181851863861,
					1
				],
				"metallicFactor":0,
				"roughnessFactor":0.534776508808136
			}
		},
		{
			"emissiveFactor":[
				0.010066400282084942,
				0.0028859300073236227,
				0.0028859300073236227
			],
			"name":"poring_cell",
			"pbrMetallicRoughness":{
				"baseColorFactor":[
					0,
					0,
					0,
					1
				],
				"metallicFactor":0
			}
		},
		{
			"doubleSided":true,
			"extensions":{
				"KHR_materials_clearcoat":{
					"clearcoatFactor":1,
					"clearcoatRoughnessFactor":0.3016314208507538
				}
			},
			"name":"cellshadow",
			"pbrMetallicRoughness":{
				"baseColorFactor":[
					0,
					0,
					0,
					1
				],
				"metallicFactor":0
			}
		},
		{
			"alphaMode":"BLEND",
			"name":"poring_face_decal",
			"pbrMetallicRoughness":{
				"baseColorTexture":{
					"index":0
				},
				"metallicFactor":0,
				"roughnessFactor":0
			}
		}
	],
	"meshes":[
		{
			"extras":{
				"targetNames":[
					"target_0",
					"target_1"
				]
			},
			"name":"mesh_1",
			"primitives":[
				{
					"attributes":{
						"POSITION":0,
						"NORMAL":1,
						"TEXCOORD_0":2,
						"JOINTS_0":3,
						"WEIGHTS_0":4
					},
					"indices":5,
					"material":0,
					"targets":[
						{
							"POSITION":6,
							"NORMAL":7
						},
						{
							"POSITION":8,
							"NORMAL":9
						}
					]
				}
			],
			"weights":[
				0,
				0
			]
		},
		{
			"extras":{
				"targetNames":[
					"target_0",
					"target_1"
				]
			},
			"name":"mesh_1.001",
			"primitives":[
				{
					"attributes":{
						"POSITION":11,
						"NORMAL":12,
						"TEXCOORD_0":13,
						"JOINTS_0":14,
						"WEIGHTS_0":15
					},
					"indices":16,
					"material":1,
					"targets":[
						{
							"POSITION":17,
							"NORMAL":18
						},
						{
							"POSITION":19,
							"NORMAL":20
						}
					]
				}
			],
			"weights":[
				0,
				0
			]
		},
		{
			"extras":{
				"targetNames":[
					"target_0",
					"target_1"
				]
			},
			"name":"mesh_1.002",
			"primitives":[
				{
					"attributes":{
						"POSITION":21,
						"NORMAL":22,
						"TEXCOORD_0":23,
						"JOINTS_0":24,
						"WEIGHTS_0":25
					},
					"indices":26,
					"material":2,
					"targets":[
						{
							"POSITION":27,
							"NORMAL":28
						},
						{
							"POSITION":29,
							"NORMAL":30
						}
					]
				}
			],
			"weights":[
				0,
				0
			]
		},
		{
			"name":"Object_0",
			"primitives":[
				{
					"attributes":{
						"POSITION":31,
						"NORMAL":32,
						"TEXCOORD_0":33,
						"JOINTS_0":34,
						"WEIGHTS_0":35
					},
					"indices":36,
					"material":3
				}
			]
		}
	],
	"textures":[
		{
			"sampler":0,
			"source":0
		}
	],
	"images":[
		{
			"mimeType":"image/png",
			"name":"poring_face_decal_baseColor",
			"uri":"poring_face_decal_baseColor.png"
		}
	],
	"skins":[
		{
			"inverseBindMatrices":10,
			"joints":[
				6,
				1,
				3,
				2,
				4,
				5
			],
			"name":"GLTF_created_0"
		}
	],
	"accessors":[
		{
			"bufferView":0,
			"componentType":5126,
			"count":3663,
			"max":[
				1.014654278755188,
				2.1080985069274902,
				0.9621880054473877
			],
			"min":[
				-1.0150476694107056,
				0.01656344346702099,
				-1.1397743225097656
			],
			"type":"VEC3"
		},
		{
			"bufferView":1,
			"componentType":5126,
			"count":3663,
			"type":"VEC3"
		},
		{
			"bufferView":2,
			"componentType":5126,
			"count":3663,
			"type":"VEC2"
		},
		{
			"bufferView":3,
			"componentType":5121,
			"count":3663,
			"type":"VEC4"
		},
		{
			"bufferView":4,
			"componentType":5126,
			"count":3663,
			"type":"VEC4"
		},
		{
			"bufferView":5,
			"componentType":5123,
			"count":21120,
			"type":"SCALAR"
		},
		{
			"componentType":5126,
			"count":3663,
			"max":[
				0,
				0,
				0
			],
			"min":[
				0,
				0,
				0
			],
			"sparse":{
				"count":1,
				"indices":{
					"bufferView":6,
					"componentType":5121
				},
				"values":{
					"bufferView":7
				}
			},
			"type":"VEC3"
		},
		{
			"componentType":5126,
			"count":3663,
			"sparse":{
				"count":2388,
				"indices":{
					"bufferView":8,
					"componentType":5123
				},
				"values":{
					"bufferView":9
				}
			},
			"type":"VEC3"
		},
		{
			"componentType":5126,
			"count":3663,
			"max":[
				0,
				0,
				0
			],
			"min":[
				0,
				0,
				0
			],
			"sparse":{
				"count":1,
				"indices":{
					"bufferView":10,
					"componentType":5121
				},
				"values":{
					"bufferView":11
				}
			},
			"type":"VEC3"
		},
		{
			"componentType":5126,
			"count":3663,
			"sparse":{
				"count":2388,
				"indices":{
					"bufferView":12,
					"componentType":5123
				},
				"values":{
					"bufferView":13
				}
			},
			"type":"VEC3"
		},
		{
			"bufferView":14,
			"componentType":5126,
			"count":6,
			"type":"MAT4"
		},
		{
			"bufferView":15,
			"componentType":5126,
			"count":3663,
			"max":[
				1.029640793800354,
				2.123089075088501,
				0.977187991142273
			],
			"min":[
				-1.0300341844558716,
				0.0015634421724826097,
				-1.1547738313674927
			],
			"type":"VEC3"
		},
		{
			"bufferView":16,
			"componentType":5126,
			"count":3663,
			"type":"VEC3"
		},
		{
			"bufferView":17,
			"componentType":5126,
			"count":3663,
			"type":"VEC2"
		},
		{
			"bufferView":18,
			"componentType":5121,
			"count":3663,
			"type":"VEC4"
		},
		{
			"bufferView":19,
			"componentType":5126,
			"count":3663,
			"type":"VEC4"
		},
		{
			"bufferView":20,
			"componentType":5123,
			"count":21120,
			"type":"SCALAR"
		},
		{
			"componentType":5126,
			"count":3663,
			"max":[
				0,
				0,
				0
			],
			"min":[
				0,
				0,
				0
			],
			"sparse":{
				"count":1,
				"indices":{
					"bufferView":21,
					"componentType":5121
				},
				"values":{
					"bufferView":22
				}
			},
			"type":"VEC3"
		},
		{
			"componentType":5126,
			"count":3663,
			"sparse":{
				"count":2329,
				"indices":{
					"bufferView":23,
					"componentType":5123
				},
				"values":{
					"bufferView":24
				}
			},
			"type":"VEC3"
		},
		{
			"componentType":5126,
			"count":3663,
			"max":[
				0,
				0,
				0
			],
			"min":[
				0,
				0,
				0
			],
			"sparse":{
				"count":1,
				"indices":{
					"bufferView":25,
					"componentType":5121
				},
				"values":{
					"bufferView":26
				}
			},
			"type":"VEC3"
		},
		{
			"componentType":5126,
			"count":3663,
			"sparse":{
				"count":2329,
				"indices":{
					"bufferView":27,
					"componentType":5123
				},
				"values":{
					"bufferView":28
				}
			},
			"type":"VEC3"
		},
		{
			"bufferView":29,
			"componentType":5126,
			"count":5128,
			"max":[
				0.5184693932533264,
				0.958556592464447,
				0.9174313545227051
			],
			"min":[
				-0.5184693932533264,
				0.7202237248420715,
				0.7858558893203735
			],
			"type":"VEC3"
		},
		{
			"bufferView":30,
			"componentType":5126,
			"count":5128,
			"type":"VEC3"
		},
		{
			"bufferView":31,
			"componentType":5126,
			"count":5128,
			"type":"VEC2"
		},
		{
			"bufferView":32,
			"componentType":5121,
			"count":5128,
			"type":"VEC4"
		},
		{
			"bufferView":33,
			"componentType":5126,
			"count":5128,
			"type":"VEC4"
		},
		{
			"bufferView":34,
			"componentType":5123,
			"count":29184,
			"type":"SCALAR"
		},
		{
			"bufferView":35,
			"componentType":5126,
			"count":5128,
			"max":[
				0.5184693932533264,
				0.11916637420654297,
				0.06578773260116577
			],
			"min":[
				-0.5184693932533264,
				-0.11916649341583252,
				-0.06578773260116577
			],
			"type":"VEC3"
		},
		{
			"bufferView":36,
			"componentType":5126,
			"count":5128,
			"type":"VEC3"
		},
		{
			"componentType":5126,
			"count":5128,
			"max":[
				0.11846938729286194,
				0.11916637420654297,
				0
			],
			"min":[
				-0.11846938729286194,
				-0.11916643381118774,
				-1.0657879114151
			],
			"sparse":{
				"count":2564,
				"indices":{
					"bufferView":37,
					"componentType":5123
				},
				"values":{
					"bufferView":38
				}
			},
			"type":"VEC3"
		},
		{
			"componentType":5126,
			"count":5128,
			"sparse":{
				"count":4338,
				"indices":{
					"bufferView":39,
					"componentType":5123
				},
				"values":{
					"bufferView":40
				}
			},
			"type":"VEC3"
		},
		{
			"bufferView":41,
			"componentType":5126,
			"count":289,
			"max":[
				0.8292828798294067,
				1.2231849431991577,
				0.9771880507469177
			],
			"min":[
				-0.8296760320663452,
				0.08376232534646988,
				0.44454318284988403
			],
			"type":"VEC3"
		},
		{
			"bufferView":42,
			"componentType":5126,
			"count":289,
			"type":"VEC3"
		},
		{
			"bufferView":43,
			"componentType":5126,
			"count":289,
			"type":"VEC2"
		},
		{
			"bufferView":44,
			"componentType":5121,
			"count":289,
			"type":"VEC4"
		},
		{
			"bufferView":45,
			"componentType":5126,
			"count":289,
			"type":"VEC4"
		},
		{
			"bufferView":46,
			"componentType":5123,
			"count":1536,
			"type":"SCALAR"
		},
		{
			"bufferView":47,
			"componentType":5126,
			"count":2,
			"max":[
				5
			],
			"min":[
				0.041666666666666664
			],
			"type":"SCALAR"
		},
		{
			"bufferView":48,
			"componentType":5126,
			"count":2,
			"type":"VEC3"
		},
		{
			"bufferView":49,
			"componentType":5126,
			"count":2,
			"type":"VEC4"
		},
		{
			"bufferView":50,
			"componentType":5126,
			"count":2,
			"type":"VEC3"
		},
		{
			"bufferView":51,
			"componentType":5126,
			"count":2,
			"type":"VEC3"
		},
		{
			"bufferView":52,
			"componentType":5126,
			"count":2,
			"type":"VEC4"
		},
		{
			"bufferView":53,
			"componentType":5126,
			"count":120,
			"max":[
				5
			],
			"min":[
				0.041666666666666664
			],
			"type":"SCALAR"
		},
		{
			"bufferView":54,
			"componentType":5126,
			"count":120,
			"type":"VEC3"
		},
		{
			"bufferView":55,
			"componentType":5126,
			"count":120,
			"type":"VEC3"
		},
		{
			"bufferView":56,
			"componentType":5126,
			"count":2,
			"type":"VEC4"
		},
		{
			"bufferView":57,
			"componentType":5126,
			"count":2,
			"type":"VEC3"
		},
		{
			"bufferView":58,
			"componentType":5126,
			"count":2,
			"type":"VEC3"
		},
		{
			"bufferView":59,
			"componentType":5126,
			"count":2,
			"type":"VEC4"
		},
		{
			"bufferView":60,
			"componentType":5126,
			"count":120,
			"type":"VEC3"
		},
		{
			"bufferView":61,
			"componentType":5126,
			"count":120,
			"type":"VEC3"
		},
		{
			"bufferView":62,
			"componentType":5126,
			"count":120,
			"type":"VEC4"
		},
		{
			"bufferView":63,
			"componentType":5126,
			"count":120,
			"type":"VEC3"
		},
		{
			"bufferView":64,
			"componentType":5126,
			"count":120,
			"type":"VEC3"
		},
		{
			"bufferView":65,
			"componentType":5126,
			"count":120,
			"type":"VEC4"
		},
		{
			"bufferView":66,
			"componentType":5126,
			"count":120,
			"type":"VEC3"
		},
		{
			"bufferView":67,
			"componentType":5126,
			"count":240,
			"type":"SCALAR"
		},
		{
			"bufferView":68,
			"componentType":5126,
			"count":240,
			"type":"SCALAR"
		},
		{
			"bufferView":69,
			"componentType":5126,
			"count":240,
			"type":"SCALAR"
		}
	],
	"bufferViews":[
		{
			"buffer":0,
			"byteLength":43956,
			"byteOffset":0,
			"target":34962
		},
		{
			"buffer":0,
			"byteLength":43956,
			"byteOffset":43956,
			"target":34962
		},
		{
			"buffer":0,
			"byteLength":29304,
			"byteOffset":87912,
			"target":34962
		},
		{
			"buffer":0,
			"byteLength":14652,
			"byteOffset":117216,
			"target":34962
		},
		{
			"buffer":0,
			"byteLength":58608,
			"byteOffset":131868,
			"target":34962
		},
		{
			"buffer":0,
			"byteLength":42240,
			"byteOffset":190476,
			"target":34963
		},
		{
			"buffer":0,
			"byteLength":1,
			"byteOffset":232716
		},
		{
			"buffer":0,
			"byteLength":12,
			"byteOffset":232720
		},
		{
			"buffer":0,
			"byteLength":4776,
			"byteOffset":232732
		},
		{
			"buffer":0,
			"byteLength":28656,
			"byteOffset":237508
		},
		{
			"buffer":0,
			"byteLength":1,
			"byteOffset":266164
		},
		{
			"buffer":0,
			"byteLength":12,
			"byteOffset":266168
		},
		{
			"buffer":0,
			"byteLength":4776,
			"byteOffset":266180
		},
		{
			"buffer":0,
			"byteLength":28656,
			"byteOffset":270956
		},
		{
			"buffer":0,
			"byteLength":384,
			"byteOffset":299612
		},
		{
			"buffer":0,
			"byteLength":43956,
			"byteOffset":299996,
			"target":34962
		},
		{
			"buffer":0,
			"byteLength":43956,
			"byteOffset":343952,
			"target":34962
		},
		{
			"buffer":0,
			"byteLength":29304,
			"byteOffset":387908,
			"target":34962
		},
		{
			"buffer":0,
			"byteLength":14652,
			"byteOffset":417212,
			"target":34962
		},
		{
			"buffer":0,
			"byteLength":58608,
			"byteOffset":431864,
			"target":34962
		},
		{
			"buffer":0,
			"byteLength":42240,
			"byteOffset":490472,
			"target":34963
		},
		{
			"buffer":0,
			"byteLength":1,
			"byteOffset":532712
		},
		{
			"buffer":0,
			"byteLength":12,
			"byteOffset":532716
		},
		{
			"buffer":0,
			"byteLength":4658,
			"byteOffset":532728
		},
		{
			"buffer":0,
			"byteLength":27948,
			"byteOffset":537388
		},
		{
			"buffer":0,
			"byteLength":1,
			"byteOffset":565336
		},
		{
			"buffer":0,
			"byteLength":12,
			"byteOffset":565340
		},
		{
			"buffer":0,
			"byteLength":4658,
			"byteOffset":565352
		},
		{
			"buffer":0,
			"byteLength":27948,
			"byteOffset":570012
		},
		{
			"buffer":0,
			"byteLength":61536,
			"byteOffset":597960,
			"target":34962
		},
		{
			"buffer":0,
			"byteLength":61536,
			"byteOffset":659496,
			"target":34962
		},
		{
			"buffer":0,
			"byteLength":41024,
			"byteOffset":721032,
			"target":34962
		},
		{
			"buffer":0,
			"byteLength":20512,
			"byteOffset":762056,
			"target":34962
		},
		{
			"buffer":0,
			"byteLength":82048,
			"byteOffset":782568,
			"target":34962
		},
		{
			"buffer":0,
			"byteLength":58368,
			"byteOffset":864616,
			"target":34963
		},
		{
			"buffer":0,
			"byteLength":61536,
			"byteOffset":922984,
			"target":34962
		},
		{
			"buffer":0,
			"byteLength":61536,
			"byteOffset":984520,
			"target":34962
		},
		{
			"buffer":0,
			"byteLength":5128,
			"byteOffset":1046056
		},
		{
			"buffer":0,
			"byteLength":30768,
			"byteOffset":1051184
		},
		{
			"buffer":0,
			"byteLength":8676,
			"byteOffset":1081952
		},
		{
			"buffer":0,
			"byteLength":52056,
			"byteOffset":1090628
		},
		{
			"buffer":0,
			"byteLength":3468,
			"byteOffset":1142684,
			"target":34962
		},
		{
			"buffer":0,
			"byteLength":3468,
			"byteOffset":1146152,
			"target":34962
		},
		{
			"buffer":0,
			"byteLength":2312,
			"byteOffset":1149620,
			"target":34962
		},
		{
			"buffer":0,
			"byteLength":1156,
			"byteOffset":1151932,
			"target":34962
		},
		{
			"buffer":0,
			"byteLength":4624,
			"byteOffset":1153088,
			"target":34962
		},
		{
			"buffer":0,
			"byteLength":3072,
			"byteOffset":1157712,
			"target":34963
		},
		{
			"buffer":0,
			"byteLength":8,
			"byteOffset":1160784
		},
		{
			"buffer":0,
			"byteLength":24,
			"byteOffset":1160792
		},
		{
			"buffer":0,
			"byteLength":32,
			"byteOffset":1160816
		},
		{
			"buffer":0,
			"byteLength":24,
			"byteOffset":1160848
		},
		{
			"buffer":0,
			"byteLength":24,
			"byteOffset":1160872
		},
		{
			"buffer":0,
			"byteLength":32,
			"byteOffset":1160896
		},
		{
			"buffer":0,
			"byteLength":480,
			"byteOffset":1160928
		},
		{
			"buffer":0,
			"byteLength":1440,
			"byteOffset":1161408
		},
		{
			"buffer":0,
			"byteLength":1440,
			"byteOffset":1162848
		},
		{
			"buffer":0,
			"byteLength":32,
			"byteOffset":1164288
		},
		{
			"buffer":0,
			"byteLength":24,
			"byteOffset":1164320
		},
		{
			"buffer":0,
			"byteLength":24,
			"byteOffset":1164344
		},
		{
			"buffer":0,
			"byteLength":32,
			"byteOffset":1164368
		},
		{
			"buffer":0,
			"byteLength":1440,
			"byteOffset":1164400
		},
		{
			"buffer":0,
			"byteLength":1440,
			"byteOffset":1165840
		},
		{
			"buffer":0,
			"byteLength":1920,
			"byteOffset":1167280
		},
		{
			"buffer":0,
			"byteLength":1440,
			"byteOffset":1169200
		},
		{
			"buffer":0,
			"byteLength":1440,
			"byteOffset":1170640
		},
		{
			"buffer":0,
			"byteLength":1920,
			"byteOffset":1172080
		},
		{
			"buffer":0,
			"byteLength":1440,
			"byteOffset":1174000
		},
		{
			"buffer":0,
			"byteLength":960,
			"byteOffset":1175440
		},
		{
			"buffer":0,
			"byteLength":960,
			"byteOffset":1176400
		},
		{
			"buffer":0,
			"byteLength":960,
			"byteOffset":1177360
		}
	],
	"samplers":[
		{
			"magFilter":9729,
			"minFilter":9987
		}
	],
	"buffers":[
		{
			"byteLength":1178320,
			"uri":"scene1.bin"
		}
	]
}
